HIERARCHY
ROOT Hips
{
  OFFSET 0 0 0
  CHANNELS 6 Xposition Yposition Zposition Zrotation Yrotation Xrotation
  JOINT LeftThigh
  {
    OFFSET 8.409438 0 -5.917753
    CHANNELS 3 Zrotation Yrotation Xrotation
    JOINT LeftLeg
    {
      OFFSET 0 0 -42.358652
      CHANNELS 3 Zrotation Yrotation Xrotation
      JOINT LeftFoot
      {
        OFFSET 0 0 -39.357303
        CHANNELS 3 Zrotation Yrotation Xrotation
      }
    }
  }
  JOINT RightThigh
  {
    OFFSET -8.409438 0 -5.917753
    CHANNELS 3 Zrotation Yrotation Xrotation
    JOINT RightLeg
    {
      OFFSET 0 0 -42.358652
      CHANNELS 3 Zrotation Yrotation Xrotation
      JOINT RightFoot
      {
        OFFSET 0 0 -39.357303
        CHANNELS 3 Zrotation Yrotation Xrotation
      }
    }
  }
  JOINT SpineLow
  {
    OFFSET 0 0 4.719101
    CHANNELS 3 Zrotation Yrotation Xrotation
    JOINT SpineMid
    {
      OFFSET 0 0 12.899191
      CHANNELS 3 Zrotation Yrotation Xrotation
      JOINT Chest
      {
        OFFSET 0 0 12.899191
        CHANNELS 3 Zrotation Yrotation Xrotation
        JOINT LeftShoulder
        {
          OFFSET 7.550562 1.41573 9.438202
          CHANNELS 3 Zrotation Yrotation Xrotation
          JOINT LeftArm
          {
            OFFSET 9.155056 0 4.247191
            CHANNELS 3 Zrotation Yrotation Xrotation
            JOINT LeftForearm
            {
              OFFSET 0 0 25.771955
              CHANNELS 3 Zrotation Yrotation Xrotation
              JOINT LeftHand
              {
                OFFSET 0 0 25.197169
                CHANNELS 3 Zrotation Yrotation Xrotation
              }
            }
          }
        }
        JOINT RightShoulder
        {
          OFFSET -7.550562 1.41573 9.438202
          CHANNELS 3 Zrotation Yrotation Xrotation
          JOINT RightArm
          {
            OFFSET -9.155056 0 4.247191
            CHANNELS 3 Zrotation Yrotation Xrotation
            JOINT RightForearm
            {
              OFFSET 0 0 -25.771955
              CHANNELS 3 Zrotation Yrotation Xrotation
              JOINT RightHand
              {
                OFFSET 0 0 -25.197169
                CHANNELS 3 Zrotation Yrotation Xrotation
              }
            }
          }
        }
        JOINT Neck
        {
          OFFSET 0 0 15.101124
          CHANNELS 3 Zrotation Yrotation Xrotation
          JOINT Head
          {
            OFFSET 0 0 11.325843
            CHANNELS 3 Zrotation Yrotation Xrotation
            End Site
            {
              OFFSET 0 0 14.157303
            }
          }
        }
      }
    }
  }
}
MOTION
Frames: 12
Frame Time: 0.0
0.0  89.887642  0.0  0.562466  -19.213062  -96.559147  20.724834  -15.366179  0.472006  -1.459715  4.667136  23.879174  6.268254  2.692906  3.317154  0.674864  7.18449  -7.088353  -1.413556  5.687804  18.374536  4.123634  1.479932  -0.784809  1.416272  -0.176022  0.670963  3.866084  -0.520187  1.823016  3.866084  -0.520187  1.823015  -2.534441  22.11419  5.240007  135.217186  39.765004  -174.717469  -3.589778  -5.920146  29.05609  87.601008  -6.963552  2.773577  -4.841857  2.995785  24.230003  54.964093  29.415181  16.823804  16.504732  3.725742  -53.325721  110.851769  -8.188882  -25.407486  -8.456105  0.621769  -0.175858  -6.341838  0.468867  -0.123316  
0.0  89.887642  0.0  0.532725  -19.468728  -96.61045  20.727951  -15.449847  0.520556  -1.35315  4.697901  23.959451  6.269166  2.696542  3.290457  0.919705  7.099934  -7.162264  -1.438311  5.696784  18.53402  4.171654  1.49204  -0.801262  1.463697  -0.171975  0.662262  3.995889  -0.509906  1.799092  3.995889  -0.509906  1.799092  -2.572572  22.149066  5.438615  135.405225  39.606052  -174.606233  -3.346149  -5.810744  28.548329  87.390804  -7.021681  2.595145  -4.916517  2.995176  24.182494  55.982982  29.070905  17.327451  15.981914  4.08505  -53.036586  110.578557  -7.983416  -25.635452  -8.500197  0.565383  -0.138935  -6.374968  0.426068  -0.096358  
0.0  89.887642  0.0  0.477428  -19.811149  -96.71582  20.733829  -15.548792  0.602083  -1.197341  4.71053  24.07341  6.205131  2.691505  3.225883  1.193376  7.014185  -7.173305  -1.282829  5.661376  18.69528  4.157763  1.478914  -0.802076  1.500318  -0.164541  0.665224  4.096155  -0.490772  1.807345  4.096155  -0.490772  1.807345  -2.552629  22.076687  5.557933  135.892749  39.418611  -174.469339  -3.412458  -5.636961  28.355442  87.214065  -7.109399  2.426623  -4.722212  2.933203  24.163185  56.904228  28.76511  17.735391  15.433738  4.647258  -52.905544  110.212224  -7.662476  -25.886603  -8.491001  0.460925  -0.1257  -6.368121  0.34752  -0.08789  
0.0  89.887642  0.0  0.430817  -20.025412  -96.73644  20.668836  -15.614437  0.628536  -1.097857  4.734843  24.155623  6.220121  2.69163  3.197934  1.433797  6.958102  -7.218678  -1.307156  5.613848  18.790015  4.129024  1.478632  -0.796456  1.529534  -0.150182  0.674124  4.176328  -0.452902  1.832335  4.176328  -0.452902  1.832335  -2.533201  21.95263  5.569289  136.344776  39.244818  -174.316352  -3.70873  -5.436585  28.347223  87.120337  -7.203645  2.263756  -4.772975  2.859115  23.916039  57.986593  28.528487  18.224724  14.886514  5.159446  -52.93094  109.7289  -7.336617  -26.231599  -8.478611  0.364636  -0.168538  -6.358836  0.275879  -0.121372  
0.0  89.887642  0.0  0.37759  -20.339715  -96.805446  20.804203  -15.704018  0.738448  -1.174327  4.784629  24.154171  6.23068  2.682103  3.129309  1.688133  6.87948  -7.231983  -1.121079  5.567268  18.928766  4.008339  1.447639  -0.820445  1.569961  -0.135201  0.693001  4.287103  -0.414314  1.884579  4.287103  -0.414314  1.884579  -2.554123  21.759991  5.496533  136.988963  39.019341  -174.164521  -4.005455  -5.269763  28.527568  87.135855  -7.262741  2.138038  -4.681037  2.795395  23.723549  58.789845  28.375398  18.569137  14.313842  5.578519  -53.087342  109.008704  -7.091324  -26.585464  -8.498508  0.243736  -0.232046  -6.37378  0.186072  -0.170684  
0.0  89.887642  0.0  0.336997  -20.546721  -96.838931  20.77758  -15.754201  0.782498  -1.151601  4.784556  24.213558  6.257149  2.69602  3.097772  1.939142  6.837973  -7.209328  -1.199953  5.538061  18.962359  4.011606  1.427837  -0.832938  1.596317  -0.114187  0.711907  4.359617  -0.358904  1.937436  4.359617  -0.358904  1.937436  -2.539782  21.562145  5.400824  137.534193  38.819805  -174.041704  -4.24878  -5.177669  28.749545  87.210579  -7.299417  2.061446  -4.82467  2.762847  23.389811  59.341914  28.210079  18.77688  14.382  6.102366  -53.195984  108.169597  -6.95697  -26.873864  -8.471946  0.13791  -0.287448  -6.353893  0.107442  -0.213723  
0.0  89.887642  0.0  0.322824  -20.831383  -96.923371  20.977686  -15.799377  0.928242  -1.197689  4.798868  24.23244  6.25272  2.66836  3.038076  2.248662  6.788589  -7.137613  -1.258195  5.524347  18.970485  4.029444  1.414643  -0.827432  1.641146  -0.097511  0.732449  4.482514  -0.316051  1.994416  4.482514  -0.316051  1.994416  -2.515388  21.396257  5.358167  137.970357  38.634168  -173.954487  -4.387672  -5.164192  28.998948  87.286152  -7.315805  2.034298  -4.966872  2.734619  23.150907  59.643712  28.044567  18.859243  14.444675  6.439441  -53.25346  106.463316  -6.981557  -26.232317  -8.477352  0.052952  -0.320869  -6.357988  0.044175  -0.239973  
0.0  89.887642  0.0  0.309666  -21.053665  -97.007236  21.048722  -15.838565  1.039101  -1.206311  4.764282  24.252587  6.291437  2.671082  3.018382  2.562327  6.762583  -7.041824  -1.336782  5.496011  18.961868  3.984453  1.39542  -0.820365  1.670611  -0.08458  0.740598  4.563392  -0.282175  2.01741  4.563392  -0.282175  2.01741  -2.519177  21.243549  5.353516  138.475652  38.444509  -173.877768  -4.421185  -5.198395  29.256016  87.349875  -7.319249  2.058693  -5.0535  2.706351  22.994166  59.550138  27.867395  18.720713  14.77977  6.631627  -53.21583  106.117764  -6.98274  -26.123511  -8.438285  0.01692  -0.297799  -6.328708  0.016806  -0.223166  
0.0  89.887642  0.0  0.353196  -21.350367  -97.150927  21.208627  -15.863394  1.215792  -0.948824  4.712567  24.420912  6.262835  2.628252  2.94746  2.934395  6.774199  -6.902613  -1.39436  5.481771  18.934346  3.948606  1.336939  -0.796149  1.71138  -0.073898  0.746744  4.675111  -0.254674  2.034758  4.675111  -0.254674  2.034758  -2.375605  21.149589  5.459436  138.613514  38.300931  -173.857159  -4.521848  -5.27463  29.432451  87.365155  -7.256664  2.064198  -5.167701  2.686057  22.899747  59.462884  27.710296  18.563214  15.043617  6.618127  -53.153148  105.841618  -7.091103  -25.787026  -8.385784  0.018524  -0.231088  -6.289332  0.017068  -0.173101  
0.0  89.887642  0.0  0.373051  -21.556451  -97.26678  21.306466  -15.912922  1.378053  -0.781421  4.650517  24.451455  6.250294  2.602875  2.925227  3.225058  6.778291  -6.774839  -1.459511  5.455783  18.901894  3.887991  1.292399  -0.76458  1.739726  -0.064248  0.757855  4.752834  -0.229983  2.065676  4.752833  -0.229983  2.065676  -2.37382  21.03468  5.479765  138.990548  38.176551  -173.798604  -4.594006  -5.321391  29.630146  87.439173  -7.193313  2.088566  -5.241564  2.648495  22.821395  59.380898  27.632242  18.368896  15.192341  6.451301  -53.075914  105.721827  -7.240463  -25.454755  -8.332678  0.022979  -0.191406  -6.249502  0.019849  -0.143272  
0.0  89.887642  0.0  0.432841  -21.782914  -97.410451  21.415688  -15.984441  1.563162  -0.563551  4.612861  24.490671  6.206561  2.586037  2.902667  3.463499  6.896897  -6.687279  -1.399206  5.381431  18.951487  3.782524  1.196455  -0.726365  1.784828  -0.052588  0.779179  4.876387  -0.201112  2.124602  4.876386  -0.201112  2.124602  -2.508878  20.891208  5.434065  139.180403  38.063286  -173.687335  -4.823568  -5.376846  29.681116  87.48946  -7.05753  2.07445  -5.377245  2.604023  22.736844  59.354579  27.60359  18.181802  15.223073  6.22313  -53.017078  105.451344  -7.455872  -25.105051  -8.303897  0.031778  -0.170474  -6.227915  0.026155  -0.127451  
0.0  89.887642  0.0  0.475512  -21.93901  -97.54763  21.487935  -16.040785  1.765709  -0.339473  4.56359  24.516756  6.15725  2.558801  2.876279  3.551763  6.966915  -6.599392  -1.4536  5.325462  18.98224  3.681363  1.146857  -0.664875  1.815765  -0.04498  0.789126  4.961149  -0.18207  2.152229  4.961149  -0.18207  2.152228  -2.559627  20.763127  5.49914  139.608559  38.000515  -173.496566  -4.953552  -5.392306  29.770521  87.619439  -6.934289  2.078442  -5.431112  2.530811  22.75075  59.487111  27.636012  18.12463  15.090817  5.939811  -53.013319  105.083929  -7.681352  -24.86912  -8.281644  0.052744  -0.12381  -6.211223  0.041245  -0.092164  
